<svg xmlns="http://www.w3.org/2000/svg" width="128" height="128" viewBox="0 0 128 128">
  <title>icon</title>
  <rect width="128" height="128" style="fill: #106f99"/>
  <g>
    <path d="M45.5,103l5.6-5.5,15.6,15.6H64A49.1,49.1,0,0,1,15,68.1h6.2A43.2,43.2,0,0,0,45.5,103m37-78-5.6,5.5L61.3,14.9H64a49.1,49.1,0,0,1,49,45.1h-6.2A43.4,43.4,0,0,0,82.5,25" style="fill: #fff"/>
    <path d="M34.5,44.7v4.4H57l-1.9,4.4H35.8a15.5,15.5,0,0,0,13.9,8.7,15.3,15.3,0,0,0,12-5.8v6.1a20,20,0,0,1-12,4.1A19.7,19.7,0,0,1,31.1,53.5H23.4l2.2-4.4h4.5V44.7H23.4l2.2-4.4h5.5a19.7,19.7,0,0,1,32.6-7.2l-1.8,4.5a15.4,15.4,0,0,0-26.1,2.7H60.7l-1.9,4.4Z" style="fill: #fff"/>
    <g>
      <path d="M68.8,103.5v-4L81.2,83H69.5V78.5H87.4v4L74.9,99H87.4v4.5Z" style="fill: #fff"/>
      <path d="M101.1,103.5c-4.7,0-6.8-3.2-6.8-6.9V87.7l-2.9,1.8V85.2l2.9-1.8V68.5h5V80.4l3.5-2.2v4.3l-3.5,2.1V96.3c0,1.9.7,2.9,2.7,2.9h2.2v4.3Z" style="fill: #fff"/>
    </g>
  </g>
</svg>
